<svg width="50" height="51" viewBox="0 0 50 51" fill="none" xmlns="http://www.w3.org/2000/svg">
<path d="M24 0.5C32.71 0.5 38.4045 1.63499 41.8848 5.11523C45.365 8.59548 46.5 14.29 46.5 23C46.5 31.71 45.365 37.4045 41.8848 40.8848C38.4045 44.365 32.71 45.5 24 45.5C15.29 45.5 9.59548 44.365 6.11523 40.8848C2.63499 37.4045 1.5 31.71 1.5 23C1.5 14.29 2.63499 8.59548 6.11523 5.11523C9.59548 1.63499 15.29 0.5 24 0.5Z" stroke="url(#paint0_linear_5_4)"/>
<g filter="url(#filter0_dd_5_4)">
<path d="M44 23C44 38.8333 39.8333 43 24 43C8.16667 43 4 38.8333 4 23C4 7.16667 8.16667 3 24 3C39.8333 3 44 7.16667 44 23Z" fill="url(#paint1_linear_5_4)"/>
<path d="M24 4C31.9132 4 36.5243 5.06335 39.2305 7.76953C41.9367 10.4757 43 15.0868 43 23C43 30.9132 41.9367 35.5243 39.2305 38.2305C36.5243 40.9367 31.9132 42 24 42C16.0868 42 11.4757 40.9367 8.76953 38.2305C6.06335 35.5243 5 30.9132 5 23C5 15.0868 6.06335 10.4757 8.76953 7.76953C11.4757 5.06335 16.0868 4 24 4Z" stroke="url(#paint2_linear_5_4)" stroke-width="2"/>
</g>
<defs>
<filter id="filter0_dd_5_4" x="0" y="0" width="50" height="51" filterUnits="userSpaceOnUse" color-interpolation-filters="sRGB">
<feFlood flood-opacity="0" result="BackgroundImageFix"/>
<feColorMatrix in="SourceAlpha" type="matrix" values="0 0 0 0 0 0 0 0 0 0 0 0 0 0 0 0 0 0 127 0" result="hardAlpha"/>
<feOffset dx="2" dy="4"/>
<feGaussianBlur stdDeviation="2"/>
<feComposite in2="hardAlpha" operator="out"/>
<feColorMatrix type="matrix" values="0 0 0 0 0 0 0 0 0 0 0 0 0 0 0 0 0 0 0.63 0"/>
<feBlend mode="normal" in2="BackgroundImageFix" result="effect1_dropShadow_5_4"/>
<feColorMatrix in="SourceAlpha" type="matrix" values="0 0 0 0 0 0 0 0 0 0 0 0 0 0 0 0 0 0 127 0" result="hardAlpha"/>
<feOffset dy="1"/>
<feGaussianBlur stdDeviation="2"/>
<feComposite in2="hardAlpha" operator="out"/>
<feColorMatrix type="matrix" values="0 0 0 0 0 0 0 0 0 0 0 0 0 0 0 0 0 0 0.76 0"/>
<feBlend mode="normal" in2="effect1_dropShadow_5_4" result="effect2_dropShadow_5_4"/>
<feBlend mode="normal" in="SourceGraphic" in2="effect2_dropShadow_5_4" result="shape"/>
</filter>
<linearGradient id="paint0_linear_5_4" x1="7.22529" y1="1" x2="28.5" y2="45" gradientUnits="userSpaceOnUse">
<stop stop-color="#A79485"/>
<stop offset="1" stop-color="#EFEFEF"/>
</linearGradient>
<linearGradient id="paint1_linear_5_4" x1="11.4645" y1="3" x2="36.5355" y2="43" gradientUnits="userSpaceOnUse">
<stop stop-color="#C54424"/>
<stop offset="1" stop-color="#FFDCD4"/>
</linearGradient>
<linearGradient id="paint2_linear_5_4" x1="19.0344" y1="3" x2="28.9656" y2="43" gradientUnits="userSpaceOnUse">
<stop stop-color="#F6EDE8"/>
<stop offset="1" stop-color="#896A62"/>
</linearGradient>
</defs>
</svg>
